<?xml version="1.0" encoding="utf-8"?>
<!-- Generator: Adobe Illustrator 18.1.1, SVG Export Plug-In . SVG Version: 6.00 Build 0)  -->
<svg version="1.1" id="Lager_1" xmlns="http://www.w3.org/2000/svg" xmlns:xlink="http://www.w3.org/1999/xlink" x="0px" y="0px"
	 viewBox="0 0 340.2 112.6" enable-background="new 0 0 340.2 112.6" xml:space="preserve">
<path fill="#77787B" d="M145,85.5c0-1-0.1-1-0.7-1.1l-0.3,0c-0.1-0.1-0.1-0.3,0-0.4c0.6,0,1,0,1.4,0c0.5,0,0.9,0,1.4,0
	c0.1,0,0.1,0.3,0,0.4l-0.2,0c-0.6,0.1-0.7,0.2-0.7,1.1v3.1c0,0.4,0,0.8,0.2,1c0.1,0.1,0.4,0.2,1.1,0.2c0.9,0,1.4,0,1.8-1.2
	c0.1-0.1,0.3-0.1,0.4,0.1c-0.1,0.6-0.3,1.3-0.4,1.6c-0.9,0-1.6,0-2.4,0h-1.2c-0.5,0-0.9,0-1.4,0c-0.1,0-0.1-0.3,0-0.4l0.3,0
	c0.6-0.1,0.7-0.2,0.7-1.1V85.5z"/>
<path fill="#77787B" d="M151.7,85.5c0-1-0.1-1-0.7-1.1l-0.3,0c-0.1-0.1-0.1-0.3,0-0.4c0.6,0,1,0,1.5,0c0.5,0,0.9,0,1.5,0
	c0.1,0,0.1,0.3,0,0.4l-0.3,0c-0.6,0.1-0.7,0.2-0.7,1.1v3.2c0,1,0.1,1,0.7,1.1l0.3,0c0.1,0.1,0.1,0.3,0,0.4c-0.5,0-1,0-1.4,0
	c-0.5,0-0.9,0-1.5,0c-0.1,0-0.1-0.3,0-0.4l0.3,0c0.6-0.1,0.7-0.2,0.7-1.1V85.5z"/>
<path fill="#77787B" d="M161.3,86.2c0-1.4-0.1-1.8-0.6-1.8l-0.5,0c-0.1-0.1-0.1-0.3,0-0.4c0.5,0,0.9,0,1.3,0c0.4,0,0.7,0,1.2,0
	c0.1,0.1,0.1,0.3,0,0.4l-0.4,0c-0.4,0-0.5,0.4-0.5,1.8v2.4c0,0.3,0,1.4,0,1.7c0,0.1-0.2,0.2-0.3,0.1c-0.2-0.2-0.4-0.5-1.3-1.5
	l-2.2-2.3c-0.5-0.6-0.9-0.9-1.1-1.1c-0.1,0-0.1,0.2-0.1,0.6V88c0,1.4,0.1,1.8,0.6,1.8l0.5,0c0.1,0.1,0.1,0.3,0,0.4
	c-0.5,0-0.9,0-1.3,0s-0.7,0-1.2,0c-0.1-0.1-0.1-0.3,0-0.4l0.4,0c0.4,0,0.5-0.4,0.5-1.8l0-2.5c0-0.5,0-0.7-0.3-0.9
	c-0.1-0.1-0.4-0.2-0.5-0.2l-0.2,0c-0.1-0.1-0.1-0.3,0-0.4c0.5,0,0.9,0,1.2,0c0.2,0,0.4,0,0.6,0c0.3,0.5,0.8,1.2,1.4,1.7l1.3,1.4
	c0.3,0.3,1.1,1.2,1.3,1.3c0.1,0,0.1-0.2,0.1-0.6V86.2z"/>
<path fill="#77787B" d="M165.3,85.5c0-1-0.1-1-0.7-1.1l-0.2,0c-0.1-0.1-0.1-0.3,0-0.4c0.5,0,0.9,0,1.4,0s0.9,0,1.4,0
	c0.1,0,0.1,0.3,0,0.4l-0.3,0c-0.6,0.1-0.6,0.2-0.6,1.1v0.8c0,0.3,0,0.5,0.1,0.5c0.1,0,0.3,0,0.4-0.1c0.5-0.3,1.6-1.6,1.7-1.7
	c0.3-0.3,0.3-0.5,0.1-0.6l-0.3-0.1c-0.1-0.1-0.1-0.3,0-0.4c0.4,0,0.8,0,1.3,0c0.4,0,0.7,0,1.2,0c0.1,0,0.2,0.3,0,0.4
	c-0.3,0.1-0.7,0.1-1,0.3c-0.4,0.2-0.7,0.5-1.3,1.1l-0.7,0.6c-0.3,0.3-0.3,0.3-0.1,0.6l1.8,2.1c0.5,0.6,0.7,0.8,1.4,0.9l0.2,0
	c0.1,0.1,0.1,0.3,0,0.4c-0.4,0-0.8,0-1.4,0c-0.5,0-0.9,0-1.4,0c-0.1-0.1-0.2-0.3-0.1-0.4l0.2,0c0.3,0,0.4-0.1,0.2-0.4l-1.3-1.5
	c-0.1-0.1-0.5-0.8-0.8-0.8c-0.2,0-0.2,0.1-0.2,0.5v1c0,1,0.1,1,0.7,1.1l0.3,0c0.1,0.1,0.1,0.3,0,0.4c-0.5,0-1,0-1.5,0
	c-0.5,0-0.9,0-1.4,0c-0.1,0-0.1-0.3,0-0.4l0.2,0c0.6-0.1,0.7-0.2,0.7-1.1V85.5z"/>
<path fill="#77787B" d="M178.9,87.1c0,1.9-1.5,3.3-3.5,3.3c-2.2,0-3.5-1.4-3.5-3.2c0-1.9,1.5-3.3,3.5-3.3
	C177.7,83.8,178.9,85.3,178.9,87.1z M173.2,86.9c0,1.5,0.7,3,2.3,3c1.1,0,2.1-0.7,2.1-2.7c0-1.5-0.7-3.1-2.3-3.1
	C174.3,84.2,173.2,84.9,173.2,86.9z M173.5,82.1c0-0.4,0.3-0.8,0.7-0.8c0.4,0,0.7,0.3,0.7,0.7c0,0.4-0.3,0.7-0.7,0.7
	C173.8,82.8,173.5,82.6,173.5,82.1z M175.9,82.1c0-0.4,0.3-0.7,0.7-0.7c0.4,0,0.7,0.3,0.7,0.7c0,0.4-0.2,0.8-0.7,0.8
	C176.2,82.8,175.9,82.6,175.9,82.1z"/>
<path fill="#77787B" d="M181.1,85.7c0-0.9,0-1.1-0.3-1.2l-0.4-0.1c-0.1,0-0.1-0.3,0-0.4c0.8-0.1,1.5-0.1,2.3-0.1
	c0.8,0,1.3,0.1,1.7,0.2c0.5,0.2,1.2,0.7,1.2,1.7c0,1-0.7,1.4-1.2,1.6c-0.5,0.2-1,0.2-1.3,0.2c-0.1-0.1-0.1-0.2,0-0.3
	c0.9-0.2,1.3-0.7,1.3-1.6c0-0.9-0.6-1.5-1.5-1.5c-0.6,0-0.6,0.1-0.6,0.5v3.8c0,1,0.1,1.1,0.7,1.1l0.3,0c0.1,0.1,0.1,0.3,0,0.4
	c-0.6,0-1.1,0-1.5,0c-0.5,0-0.9,0-1.4,0c-0.1,0-0.1-0.3,0-0.4l0.2,0c0.6-0.1,0.7-0.2,0.7-1.1V85.7z"/>
<path fill="#77787B" d="M187.7,85.5c0-1-0.1-1-0.7-1.1l-0.3,0c-0.1-0.1-0.1-0.3,0-0.4c0.6,0,1,0,1.5,0c0.5,0,0.9,0,1.5,0
	c0.1,0,0.1,0.3,0,0.4l-0.3,0c-0.6,0.1-0.7,0.2-0.7,1.1v3.2c0,1,0.1,1,0.7,1.1l0.3,0c0.1,0.1,0.1,0.3,0,0.4c-0.5,0-1,0-1.5,0
	c-0.5,0-0.9,0-1.5,0c-0.1,0-0.1-0.3,0-0.4l0.3,0c0.6-0.1,0.7-0.2,0.7-1.1V85.5z"/>
<path fill="#77787B" d="M197.3,86.2c0-1.4-0.1-1.8-0.6-1.8l-0.5,0c-0.1-0.1-0.1-0.3,0-0.4c0.5,0,0.9,0,1.3,0c0.4,0,0.7,0,1.2,0
	c0.1,0.1,0.1,0.3,0,0.4l-0.4,0c-0.4,0-0.5,0.4-0.5,1.8v2.4c0,0.3,0,1.4,0,1.7c0,0.1-0.2,0.2-0.3,0.1c-0.2-0.2-0.4-0.5-1.3-1.5
	l-2.2-2.3c-0.5-0.6-0.9-0.9-1.1-1.1c-0.1,0-0.1,0.2-0.1,0.6V88c0,1.4,0.1,1.8,0.6,1.8l0.5,0c0.1,0.1,0.1,0.3,0,0.4
	c-0.5,0-0.9,0-1.3,0c-0.4,0-0.7,0-1.2,0c-0.1-0.1-0.1-0.3,0-0.4l0.4,0c0.4,0,0.5-0.4,0.5-1.8v-2.5c0-0.5,0-0.7-0.3-0.9
	c-0.1-0.1-0.4-0.2-0.5-0.2l-0.2,0c-0.1-0.1-0.1-0.3,0-0.4c0.5,0,0.9,0,1.2,0c0.2,0,0.4,0,0.6,0c0.3,0.5,0.8,1.2,1.4,1.7l1.3,1.4
	c0.3,0.3,1.1,1.2,1.3,1.3c0.1,0,0.1-0.2,0.1-0.6V86.2z"/>
<path fill="#77787B" d="M204.8,88.9c0-0.7,0-0.7-0.7-0.9l-0.5-0.1c-0.1-0.1-0.1-0.3,0-0.4c0.6,0,1.2,0,1.6,0c0.4,0,0.9,0,1.2,0
	c0.1,0.1,0.1,0.3,0,0.4l-0.3,0.1c-0.4,0.1-0.4,0.2-0.4,0.8v0.4c0,0.3,0,0.6,0.2,0.7c0.1,0,0.1,0.2,0,0.2c-0.2,0-0.5,0.1-0.9,0.2
	c-0.4,0.1-0.9,0.2-1.4,0.2c-1.3,0-2.3-0.3-3.1-1.1c-0.6-0.6-0.9-1.4-0.9-2.2c0-0.8,0.3-1.6,0.9-2.2c0.7-0.7,1.6-1.1,3.1-1.1
	c0.8,0,1.5,0.2,1.9,0.3c0,0.3,0,0.9,0.1,1.6c-0.1,0.1-0.3,0.1-0.4,0c-0.4-1.1-1-1.5-2-1.5c-1.5,0-2.4,1.2-2.4,2.8
	c0,1.7,1.1,2.9,2.8,2.9c0.8,0,0.9-0.1,0.9-0.7V88.9z"/>
<path fill="#77787B" d="M209.6,87.3c-0.7-0.4-1.3-0.9-1.3-1.7c0-1,0.8-1.8,2.2-1.8c0.5,0,0.8,0.1,1.3,0.2c0.1,0.2,0.2,0.8,0.2,1.4
	c0,0.1-0.3,0.1-0.4,0c-0.1-0.5-0.5-1.2-1.3-1.2c-0.8,0-1.2,0.5-1.2,1c0,0.5,0.4,0.8,1,1.1l0.9,0.5c0.5,0.3,1.2,0.9,1.2,1.8
	c0,1.1-0.9,1.8-2.3,1.8c-0.9,0-1.4-0.3-1.6-0.4c-0.1-0.2-0.3-0.7-0.3-1.5c0.1-0.1,0.3-0.2,0.4,0c0.1,0.5,0.7,1.5,1.7,1.5
	c0.7,0,1.2-0.4,1.2-1c0-0.5-0.2-0.9-1-1.3L209.6,87.3z"/>
<path fill="#77787B" d="M220,84.8c0-0.4,0-0.4-0.3-0.4h-0.4c-0.9,0-1.2,0.1-1.6,1.1c-0.1,0.1-0.3,0-0.4-0.1c0.2-0.6,0.3-1.3,0.4-1.7
	c0.1-0.1,0.2-0.1,0.3,0c0,0.3,0.2,0.3,0.8,0.3h4c0.5,0,0.6,0,0.7-0.3c0.1-0.1,0.2,0,0.3,0c-0.1,0.4-0.2,1.1-0.1,1.7
	c-0.1,0.1-0.3,0.1-0.4,0c-0.1-0.9-0.5-1-1.3-1h-0.5c-0.3,0-0.3,0-0.3,0.4v3.9c0,1,0.1,1.1,0.7,1.1l0.4,0c0.1,0.1,0.1,0.3,0,0.4
	c-0.6,0-1.1,0-1.6,0c-0.5,0-1,0-1.6,0c-0.1,0-0.1-0.3,0-0.4l0.4,0c0.6-0.1,0.7-0.2,0.7-1.1V84.8z"/>
<path fill="#77787B" d="M226,85.5c0-1-0.1-1-0.6-1.1l-0.2,0c-0.1-0.1-0.1-0.3,0-0.4c0.4,0,0.9,0,1.3,0h2c0.6,0,1.2,0,1.3,0
	c0,0.2,0.1,0.8,0.2,1.5c-0.1,0.1-0.3,0.1-0.4,0c-0.1-0.4-0.2-0.6-0.3-0.7c-0.2-0.3-0.9-0.3-1.2-0.3h-0.6c-0.5,0-0.5,0-0.5,0.5v1.6
	c0,0.3,0,0.3,0.3,0.3h0.7c0.8,0,0.8-0.1,0.9-0.5l0.1-0.3c0.1-0.1,0.3-0.1,0.4,0c0,0.4,0,0.7,0,1c0,0.4,0,0.6,0,1
	c-0.1,0.1-0.3,0.1-0.4,0l-0.1-0.3c-0.1-0.4-0.2-0.5-0.9-0.5h-0.7c-0.3,0-0.3,0-0.3,0.3v1c0,0.4,0,0.9,0.2,1c0.1,0.1,0.4,0.2,1.2,0.2
	c0.9,0,1.4,0,1.8-1.2c0.1-0.1,0.3-0.1,0.4,0.1c-0.1,0.6-0.3,1.3-0.4,1.6c-0.9,0-1.6,0-2.4,0h-1.3c-0.5,0-0.9,0-1.6,0
	c-0.1,0-0.1-0.3,0-0.4l0.4,0c0.6-0.1,0.7-0.2,0.7-1.1V85.5z"/>
<path fill="#77787B" d="M232.9,85.5c0-1-0.1-1-0.7-1.1l-0.2,0c-0.1-0.1-0.1-0.3,0-0.4c0.5,0,0.9,0,1.4,0c0.5,0,0.9,0,1.4,0
	c0.1,0,0.1,0.3,0,0.4l-0.3,0c-0.6,0.1-0.6,0.2-0.6,1.1v0.8c0,0.3,0,0.5,0.1,0.5c0.1,0,0.3,0,0.4-0.1c0.5-0.3,1.6-1.6,1.7-1.7
	c0.3-0.3,0.3-0.5,0.1-0.6l-0.3-0.1c-0.1-0.1-0.1-0.3,0-0.4c0.4,0,0.8,0,1.3,0c0.4,0,0.7,0,1.2,0c0.1,0,0.2,0.3,0,0.4
	c-0.3,0.1-0.7,0.1-1,0.3c-0.4,0.2-0.7,0.5-1.3,1.1l-0.7,0.6c-0.3,0.3-0.3,0.3-0.1,0.6l1.8,2.1c0.5,0.6,0.7,0.8,1.4,0.9l0.2,0
	c0.1,0.1,0.1,0.3,0,0.4c-0.4,0-0.8,0-1.4,0c-0.5,0-0.9,0-1.4,0c-0.1-0.1-0.2-0.3-0.1-0.4l0.2,0c0.3,0,0.4-0.1,0.2-0.4l-1.3-1.5
	c-0.1-0.1-0.5-0.8-0.8-0.8c-0.2,0-0.2,0.1-0.2,0.5v1c0,1,0.1,1,0.7,1.1l0.3,0c0.1,0.1,0.1,0.3,0,0.4c-0.5,0-1,0-1.5,0
	c-0.5,0-0.9,0-1.3,0c-0.1,0-0.1-0.3,0-0.4l0.2,0c0.6-0.1,0.7-0.2,0.7-1.1V85.5z"/>
<path fill="#77787B" d="M245.9,86.2c0-1.4-0.1-1.8-0.6-1.8l-0.5,0c-0.1-0.1-0.1-0.3,0-0.4c0.5,0,0.9,0,1.3,0c0.4,0,0.7,0,1.2,0
	c0.1,0.1,0.1,0.3,0,0.4l-0.4,0c-0.4,0-0.5,0.4-0.5,1.8v2.4c0,0.3,0,1.4,0,1.7c0,0.1-0.2,0.2-0.3,0.1c-0.2-0.2-0.4-0.5-1.3-1.5
	l-2.2-2.3c-0.5-0.6-0.9-0.9-1.1-1.1c-0.1,0-0.1,0.2-0.1,0.6V88c0,1.4,0.1,1.8,0.6,1.8l0.5,0c0.1,0.1,0.1,0.3,0,0.4
	c-0.5,0-0.9,0-1.3,0c-0.4,0-0.7,0-1.2,0c-0.1-0.1-0.1-0.3,0-0.4l0.4,0c0.4,0,0.5-0.4,0.5-1.8v-2.5c0-0.5,0-0.7-0.3-0.9
	c-0.1-0.1-0.4-0.2-0.5-0.2l-0.2,0c-0.1-0.1-0.1-0.3,0-0.4c0.5,0,0.9,0,1.2,0c0.2,0,0.4,0,0.6,0c0.3,0.5,0.8,1.2,1.4,1.7l1.3,1.4
	c0.3,0.3,1.1,1.2,1.3,1.3c0.1,0,0.1-0.2,0.1-0.6V86.2z"/>
<path fill="#77787B" d="M249.9,85.5c0-1-0.1-1-0.7-1.1l-0.3,0c-0.1-0.1-0.1-0.3,0-0.4c0.6,0,1,0,1.5,0c0.5,0,0.9,0,1.5,0
	c0.1,0,0.1,0.3,0,0.4l-0.3,0c-0.6,0.1-0.7,0.2-0.7,1.1v3.2c0,1,0.1,1,0.7,1.1l0.3,0c0.1,0.1,0.1,0.3,0,0.4c-0.5,0-1,0-1.5,0
	c-0.5,0-0.9,0-1.5,0c-0.1,0-0.1-0.3,0-0.4l0.3,0c0.6-0.1,0.7-0.2,0.7-1.1V85.5z"/>
<path fill="#77787B" d="M255.1,87.3c-0.7-0.4-1.3-0.9-1.3-1.7c0-1,0.8-1.8,2.2-1.8c0.5,0,0.8,0.1,1.3,0.2c0.1,0.2,0.2,0.8,0.2,1.4
	c0,0.1-0.3,0.1-0.4,0c-0.1-0.5-0.5-1.2-1.3-1.2c-0.8,0-1.2,0.5-1.2,1c0,0.5,0.4,0.8,1,1.1l0.9,0.5c0.5,0.3,1.2,0.9,1.2,1.8
	c0,1.1-0.9,1.8-2.3,1.8c-0.9,0-1.4-0.3-1.6-0.4c-0.1-0.2-0.3-0.7-0.3-1.5c0.1-0.1,0.3-0.2,0.4,0c0.1,0.5,0.7,1.5,1.7,1.5
	c0.7,0,1.2-0.4,1.2-1c0-0.5-0.2-0.9-1-1.3L255.1,87.3z"/>
<path fill="#77787B" d="M260.2,85.5c0-1-0.1-1-0.7-1.1l-0.2,0c-0.1-0.1-0.1-0.3,0-0.4c0.5,0,0.9,0,1.4,0c0.5,0,0.9,0,1.4,0
	c0.1,0,0.1,0.3,0,0.4l-0.3,0c-0.6,0.1-0.6,0.2-0.6,1.1v0.8c0,0.3,0,0.5,0.1,0.5c0.1,0,0.3,0,0.4-0.1c0.5-0.3,1.6-1.6,1.7-1.7
	c0.3-0.3,0.3-0.5,0.1-0.6l-0.3-0.1c-0.1-0.1-0.1-0.3,0-0.4c0.4,0,0.8,0,1.3,0c0.4,0,0.7,0,1.2,0c0.1,0,0.2,0.3,0,0.4
	c-0.3,0.1-0.7,0.1-1,0.3c-0.4,0.2-0.7,0.5-1.3,1.1l-0.7,0.6c-0.3,0.3-0.3,0.3-0.1,0.6l1.8,2.1c0.5,0.6,0.7,0.8,1.4,0.9l0.2,0
	c0.1,0.1,0.1,0.3,0,0.4c-0.4,0-0.8,0-1.4,0c-0.5,0-0.9,0-1.4,0c-0.1-0.1-0.2-0.3-0.1-0.4l0.2,0c0.3,0,0.4-0.1,0.2-0.4l-1.3-1.5
	c-0.1-0.1-0.5-0.8-0.8-0.8c-0.2,0-0.2,0.1-0.2,0.5v1c0,1,0.1,1,0.7,1.1l0.3,0c0.1,0.1,0.1,0.3,0,0.4c-0.5,0-1,0-1.4,0
	c-0.5,0-0.9,0-1.4,0c-0.1,0-0.1-0.3,0-0.4l0.2,0c0.6-0.1,0.7-0.2,0.7-1.1V85.5z"/>
<path fill="#77787B" d="M269.5,88c-0.3,0-0.4,0-0.5,0.3l-0.3,0.9c-0.2,0.5-0.1,0.5,0.2,0.6l0.4,0.1c0.1,0.1,0.1,0.3,0,0.4
	c-0.4,0-0.7,0-1.1,0c-0.4,0-0.7,0-1,0c-0.1-0.1-0.1-0.3,0-0.4l0.3-0.1c0.4-0.1,0.6-0.3,0.9-0.9l1.4-3.3c0.2-0.6,0.3-0.9,0.4-1.2
	c0.3-0.1,0.5-0.4,0.6-0.5c0.1,0,0.2,0,0.2,0.1c0.1,0.1,0.3,0.9,0.6,1.7l1.3,3.4c0.2,0.5,0.3,0.7,0.8,0.8l0.2,0
	c0.1,0.1,0.1,0.3,0,0.4c-0.4,0-0.7,0-1.2,0c-0.5,0-0.9,0-1.3,0c-0.1,0-0.2-0.3,0-0.4l0.3,0c0.4-0.1,0.4-0.1,0.2-0.6l-0.3-0.9
	c-0.1-0.3-0.2-0.3-0.5-0.3H269.5z M270.6,87.5c0.4,0,0.4,0,0.3-0.4l-0.4-1.2c-0.1-0.3-0.2-0.4-0.2-0.5h0c0,0.1-0.1,0.2-0.2,0.5
	l-0.5,1.3c-0.2,0.4-0.1,0.4,0.2,0.4H270.6z"/>
<path fill="#77787B" d="M283.7,86.7c0.5,0,0.5,0,0.5-0.4v-0.9c0-1-0.1-1-0.7-1.1l-0.3,0c-0.1-0.1-0.1-0.3,0-0.4c0.6,0,1,0,1.5,0
	c0.5,0,0.9,0,1.5,0c0.1,0,0.1,0.3,0,0.4l-0.3,0c-0.6,0.1-0.7,0.2-0.7,1.1v3.2c0,1,0.1,1.1,0.7,1.1l0.3,0c0.1,0.1,0.1,0.3,0,0.4
	c-0.6,0-1.1,0-1.5,0c-0.5,0-0.9,0-1.5,0c-0.1,0-0.1-0.3,0-0.4l0.3,0c0.6-0.1,0.7-0.2,0.7-1.1v-1.1c0-0.4,0-0.4-0.5-0.4h-2.5
	c-0.5,0-0.5,0-0.5,0.4v1.1c0,1,0.1,1.1,0.7,1.1l0.4,0c0.1,0.1,0.1,0.3,0,0.4c-0.7,0-1.1,0-1.6,0c-0.5,0-0.9,0-1.3,0
	c-0.1,0-0.1-0.3,0-0.4l0.2,0c0.6-0.2,0.7-0.2,0.7-1.1v-3.2c0-1-0.1-1.1-0.7-1.1l-0.3,0c-0.1-0.1-0.1-0.3,0-0.4c0.6,0,1.1,0,1.5,0
	s0.9,0,1.4,0c0.1,0,0.1,0.3,0,0.4l-0.2,0c-0.6,0.1-0.7,0.2-0.7,1.1v0.9c0,0.4,0.1,0.4,0.5,0.4H283.7z"/>
<path fill="#77787B" d="M294.5,87.1c0,1.9-1.4,3.3-3.5,3.3c-2.2,0-3.5-1.4-3.5-3.2c0-1.9,1.4-3.3,3.5-3.3
	C293.3,83.8,294.5,85.3,294.5,87.1z M288.8,86.9c0,1.5,0.7,3,2.3,3c1.1,0,2.1-0.7,2.1-2.7c0-1.5-0.7-3.1-2.3-3.1
	C289.9,84.2,288.8,84.9,288.8,86.9z M289.1,82.1c0-0.4,0.3-0.8,0.7-0.8c0.4,0,0.7,0.3,0.7,0.7c0,0.4-0.3,0.7-0.7,0.7
	C289.4,82.8,289.1,82.6,289.1,82.1z M291.5,82.1c0-0.4,0.3-0.7,0.7-0.7c0.4,0,0.7,0.3,0.7,0.7c0,0.4-0.2,0.8-0.7,0.8
	C291.9,82.8,291.6,82.6,291.5,82.1z"/>
<path fill="#77787B" d="M301,88.9c0-0.7,0-0.7-0.7-0.9l-0.5-0.1c-0.1-0.1-0.1-0.3,0-0.4c0.6,0,1.2,0,1.6,0c0.4,0,0.9,0,1.2,0
	c0.1,0.1,0.1,0.3,0,0.4l-0.3,0.1c-0.4,0.1-0.4,0.2-0.4,0.8v0.4c0,0.3,0,0.6,0.2,0.7c0.1,0,0.1,0.2,0,0.2c-0.2,0-0.5,0.1-0.9,0.2
	c-0.4,0.1-0.9,0.2-1.4,0.2c-1.3,0-2.3-0.3-3.1-1.1c-0.6-0.6-0.9-1.4-0.9-2.2c0-0.8,0.3-1.6,0.9-2.2c0.7-0.7,1.6-1.1,3.1-1.1
	c0.8,0,1.5,0.2,1.9,0.3c0,0.3,0,0.9,0.1,1.6c-0.1,0.1-0.3,0.1-0.4,0c-0.4-1.1-1-1.5-2-1.5c-1.5,0-2.4,1.2-2.4,2.8
	c0,1.7,1.1,2.9,2.8,2.9c0.8,0,0.9-0.1,0.9-0.7V88.9z"/>
<path fill="#77787B" d="M305.8,87.3c-0.7-0.4-1.3-0.9-1.3-1.7c0-1,0.8-1.8,2.2-1.8c0.5,0,0.8,0.1,1.3,0.2c0.1,0.2,0.2,0.8,0.2,1.4
	c0,0.1-0.3,0.1-0.4,0c-0.1-0.5-0.5-1.2-1.3-1.2c-0.8,0-1.2,0.5-1.2,1c0,0.5,0.4,0.8,1,1.1l0.9,0.5c0.5,0.3,1.2,0.9,1.2,1.8
	c0,1.1-0.9,1.8-2.3,1.8c-0.9,0-1.4-0.3-1.6-0.4c-0.1-0.2-0.3-0.7-0.3-1.5c0.1-0.1,0.3-0.2,0.4,0c0.1,0.5,0.7,1.5,1.7,1.5
	c0.7,0,1.2-0.4,1.2-1c0-0.5-0.2-0.9-1-1.3L305.8,87.3z"/>
<path fill="#77787B" d="M310.9,85.5c0-1-0.1-1-0.7-1.1l-0.2,0c-0.1-0.1-0.1-0.3,0-0.4c0.5,0,0.9,0,1.4,0c0.5,0,0.9,0,1.4,0
	c0.1,0,0.1,0.3,0,0.4l-0.3,0c-0.6,0.1-0.6,0.2-0.6,1.1v0.8c0,0.3,0,0.5,0.1,0.5c0.1,0,0.3,0,0.4-0.1c0.5-0.3,1.6-1.6,1.7-1.7
	c0.3-0.3,0.3-0.5,0.1-0.6l-0.3-0.1c-0.1-0.1-0.1-0.3,0-0.4c0.4,0,0.8,0,1.3,0c0.4,0,0.7,0,1.2,0c0.1,0,0.2,0.3,0,0.4
	c-0.3,0.1-0.7,0.1-1,0.3c-0.4,0.2-0.7,0.5-1.3,1.1l-0.7,0.6c-0.3,0.3-0.3,0.3-0.1,0.6l1.8,2.1c0.5,0.6,0.7,0.8,1.4,0.9l0.2,0
	c0.1,0.1,0.1,0.3,0,0.4c-0.4,0-0.8,0-1.4,0c-0.5,0-0.9,0-1.4,0c-0.1-0.1-0.2-0.3-0.1-0.4l0.2,0c0.3,0,0.4-0.1,0.2-0.4l-1.3-1.5
	c-0.1-0.1-0.5-0.8-0.8-0.8c-0.2,0-0.2,0.1-0.2,0.5v1c0,1,0.1,1,0.7,1.1l0.3,0c0.1,0.1,0.1,0.3,0,0.4c-0.5,0-1,0-1.4,0
	c-0.5,0-0.9,0-1.4,0c-0.1,0-0.1-0.3,0-0.4l0.2,0c0.6-0.1,0.7-0.2,0.7-1.1V85.5z"/>
<path fill="#77787B" d="M324.5,87.1c0,1.9-1.5,3.3-3.5,3.3c-2.2,0-3.5-1.4-3.5-3.2c0-1.9,1.5-3.3,3.5-3.3
	C323.3,83.8,324.5,85.3,324.5,87.1z M318.8,86.9c0,1.5,0.7,3,2.3,3c1.1,0,2.1-0.7,2.1-2.7c0-1.5-0.7-3.1-2.3-3.1
	C319.9,84.2,318.8,84.9,318.8,86.9z"/>
<path fill="#77787B" d="M326.7,85.5c0-1-0.1-1-0.7-1.1l-0.3,0c-0.1-0.1-0.1-0.3,0-0.4c0.6,0,1,0,1.4,0c0.5,0,0.9,0,1.4,0
	c0.1,0,0.1,0.3,0,0.4l-0.2,0c-0.6,0.1-0.7,0.2-0.7,1.1v3.1c0,0.4,0,0.8,0.2,1c0.1,0.1,0.4,0.2,1.1,0.2c0.9,0,1.4,0,1.8-1.2
	c0.1-0.1,0.3-0.1,0.4,0.1c-0.1,0.6-0.3,1.3-0.4,1.6c-0.9,0-1.6,0-2.4,0h-1.2c-0.5,0-0.9,0-1.4,0c-0.1,0-0.1-0.3,0-0.4l0.3,0
	c0.6-0.1,0.7-0.2,0.7-1.1V85.5z"/>
<path fill="#77787B" d="M334.6,88c-0.3,0-0.4,0-0.5,0.3l-0.3,0.9c-0.2,0.5-0.1,0.5,0.2,0.6l0.4,0.1c0.1,0.1,0.1,0.3,0,0.4
	c-0.4,0-0.7,0-1.1,0c-0.4,0-0.7,0-1,0c-0.1-0.1-0.1-0.3,0-0.4l0.3-0.1c0.4-0.1,0.6-0.3,0.9-0.9l1.4-3.3c0.2-0.6,0.3-0.9,0.4-1.2
	c0.3-0.1,0.5-0.4,0.6-0.5c0.1,0,0.2,0,0.2,0.1c0.1,0.1,0.3,0.9,0.6,1.7l1.3,3.4c0.2,0.5,0.3,0.7,0.8,0.8l0.2,0
	c0.1,0.1,0.1,0.3,0,0.4c-0.4,0-0.7,0-1.2,0c-0.5,0-0.9,0-1.3,0c-0.1,0-0.2-0.3,0-0.4l0.3,0c0.4-0.1,0.4-0.1,0.2-0.6l-0.3-0.9
	c-0.1-0.3-0.2-0.3-0.5-0.3H334.6z M335.7,87.5c0.4,0,0.4,0,0.3-0.4l-0.4-1.2c-0.1-0.3-0.2-0.4-0.2-0.5h0c0,0.1-0.1,0.2-0.2,0.5
	l-0.5,1.3c-0.2,0.4-0.1,0.4,0.2,0.4H335.7z"/>
<rect x="143.9" y="74.5" fill="#77787B" width="194.1" height="1.3"/>
<path fill="#77787B" d="M74,11.1c0-3.6-0.2-3.8-2.4-4.2l-1-0.2c-0.4-0.3-0.3-1.1,0.1-1.3c2,0.1,3.6,0.2,5.3,0.2
	c1.7,0,3.3-0.1,5.3-0.2c0.4,0.2,0.5,1,0.1,1.3l-1,0.2c-2.2,0.4-2.4,0.6-2.4,4.2v11.6c0,3.6,0.2,3.8,2.4,4.2l1,0.2
	c0.4,0.3,0.3,1.1-0.1,1.3c-2-0.1-3.7-0.2-5.3-0.2c-1.7,0-3.3,0.1-5.3,0.2c-0.4-0.2-0.5-1-0.1-1.3l1-0.2c2.2-0.4,2.4-0.6,2.4-4.2
	V11.1z"/>
<path fill="#77787B" d="M108.6,13.7c0-5.2-0.3-6.5-2.2-6.7l-1.7-0.2c-0.4-0.3-0.3-1,0.1-1.3c1.9,0.1,3.1,0.2,4.6,0.2
	c1.5,0,2.6-0.1,4.3-0.2c0.4,0.3,0.4,1,0.1,1.3L112.2,7c-1.3,0.2-1.8,1.6-1.8,6.7v8.7c0,1,0,5.2,0.2,6c-0.2,0.3-0.6,0.6-1.1,0.5
	c-0.6-0.7-1.6-1.8-4.8-5.3l-7.9-8.4c-2-2.1-3.3-3.4-4-4c-0.2,0-0.2,0.6-0.2,2.2v6.9c0,5.2,0.3,6.5,2.2,6.7l1.7,0.2
	c0.4,0.3,0.3,1-0.1,1.3c-1.9-0.1-3.1-0.2-4.6-0.2c-1.5,0-2.5,0.1-4.3,0.2c-0.4-0.2-0.4-1-0.1-1.3l1.6-0.2c1.4-0.2,1.8-1.6,1.8-6.7
	v-9.3c0-1.7-0.1-2.4-1.1-3.2c-0.4-0.3-1.4-0.6-1.9-0.7l-0.8-0.2c-0.4-0.3-0.4-1.1,0.1-1.3c2,0.2,3.4,0.2,4.5,0.2
	c0.7,0,1.5-0.1,2.1-0.2c1,2,3,4.2,5.1,6.4l4.9,5c1.1,1.1,4.2,4.4,4.7,4.8c0.3-0.1,0.3-0.8,0.3-2.1V13.7z"/>
<path fill="#77787B" d="M122.5,11.7c0-3.4-0.1-4.3-1.2-4.4l-1.6-0.2c-0.5-0.2-0.4-1.1,0.1-1.3c2.9-0.2,5.8-0.3,10-0.3
	c2.9,0,5.5,0.3,7.9,1.1c4.7,1.6,7.2,5.4,7.2,10.2c0,4.1-2.1,7.9-6.3,10c-2.3,1.2-5.2,1.6-7.8,1.6c-2.3,0-4.7-0.3-6.2-0.3
	c-1.7,0-3.3,0.1-5.3,0.2c-0.4-0.2-0.5-1-0.1-1.3l1-0.2c2.2-0.4,2.4-0.6,2.4-4.2V11.7z M126.4,22c0,3.3,0.5,5,4.5,5
	c6.2,0,9.3-3.9,9.3-10.2c0-6.4-4.5-9.7-10.3-9.7c-1.7,0-2.7,0.2-3.1,0.6c-0.3,0.2-0.3,0.9-0.3,2V22z"/>
<path fill="#77787B" d="M151.9,11.1c0-3.6-0.3-3.7-2.4-4.2l-0.7-0.2c-0.4-0.3-0.3-1.1,0.1-1.3c1.8,0.1,3.4,0.2,5,0.2
	c1.7,0,3.3-0.1,5.3-0.2c0.4,0.2,0.5,1,0.1,1.3l-1,0.2c-2.2,0.4-2.4,0.6-2.4,4.2v7.3c0,5.2,1.7,8.7,6.8,8.7c4.7,0,6.7-3.5,6.7-8.7
	v-4.8c0-5.2-0.3-6.4-2.5-6.7l-1.1-0.2c-0.4-0.3-0.3-1,0.1-1.3c1.7,0.1,2.9,0.2,4.4,0.2c1.5,0,2.6-0.1,4.3-0.2c0.4,0.3,0.4,1,0.1,1.3
	L172.9,7c-1.4,0.2-1.8,1.6-1.8,6.7v5.1c0,6.6-3.1,10.1-9.7,10.1c-3.3,0-5.8-0.7-7.4-2.2c-1.6-1.6-2.2-3.9-2.2-7.3V11.1z"/>
<path fill="#77787B" d="M184,17.6c-2.5-1.3-4.6-3.3-4.6-6.2c0-3.8,2.9-6.4,8.2-6.4c1.8,0,3.1,0.5,4.8,0.8c0.4,0.9,0.8,2.9,0.7,5.1
	c-0.2,0.4-1.1,0.5-1.3,0.1c-0.4-1.8-1.8-4.5-4.8-4.5c-3.1,0-4.2,1.8-4.2,3.5c0,1.9,1.4,3,3.5,4.1l3.2,1.7c1.9,0.9,4.2,3.1,4.2,6.6
	c0,4.1-3.3,6.6-8.5,6.6c-3.2,0-5.2-1.1-6-1.6c-0.5-0.7-1.1-2.6-1.1-5.3c0.2-0.5,1-0.6,1.4-0.1c0.4,1.9,2.7,5.6,6.2,5.6
	c2.6,0,4.4-1.4,4.4-3.7c0-1.7-0.7-3.4-3.6-4.9L184,17.6z"/>
<path fill="#77787B" d="M207.9,8.5c0-1.4-0.1-1.4-1.1-1.4h-1.6c-3.2,0-4.5,0.3-5.8,3.9c-0.5,0.3-1.1,0.2-1.3-0.3
	c0.6-2.2,1.1-4.8,1.4-6.1c0.2-0.2,0.7-0.2,0.9,0c0.1,1,0.8,1,2.9,1h14.4c1.9,0,2.3-0.1,2.7-1c0.4-0.2,0.8-0.1,0.9,0.2
	c-0.4,1.4-0.6,4.1-0.5,6.1c-0.2,0.4-1.1,0.5-1.3,0.1c-0.4-3.4-1.7-3.8-4.8-3.8H213c-1,0-1.1,0-1.1,1.4v14.2c0,3.6,0.2,3.9,2.4,4.2
	l1.4,0.2c0.4,0.3,0.3,1.1-0.1,1.3c-2.1-0.1-4.1-0.2-5.7-0.2c-1.7,0-3.5,0.1-5.7,0.2c-0.4-0.2-0.5-1-0.1-1.3l1.4-0.2
	c2.2-0.3,2.4-0.6,2.4-4.2V8.5z"/>
<path fill="#77787B" d="M229.4,11.7c0-3.4-0.1-4.3-1.2-4.4l-1.5-0.2c-0.4-0.1-0.5-1.1,0-1.3c2.9-0.2,5.8-0.3,8.6-0.3
	c4.8,0,10.1,0.8,10.1,6.2c0,3.3-2.6,4.8-4.6,5.6c-0.2,0.2-0.2,0.5,0,0.8c2.6,4.4,4.9,6.9,6.6,8.3c0.9,0.8,1.9,1,2.8,1.1
	c0.2,0.2,0.2,0.7,0,0.8c-0.5,0.2-1.2,0.3-2.2,0.3c-3.1,0-5-1-7.3-3.9c-1.3-1.7-2.7-3.9-3.8-5.6c-0.4-0.6-1.2-0.8-2.1-0.8
	c-1.4,0-1.5,0.1-1.5,0.8v3.7c0,3.6,0.2,3.8,2.4,4.2l1.2,0.2c0.4,0.3,0.3,1.1-0.1,1.3c-2.2-0.1-3.9-0.2-5.5-0.2
	c-1.7,0-3.3,0.1-5.1,0.2c-0.5-0.2-0.6-1.1-0.1-1.3l0.8-0.2c2.2-0.5,2.4-0.6,2.4-4.2V11.7z M233.3,15.5c0,1.3,0.1,1.3,2.6,1.3
	c3.4,0,5.1-1.4,5.1-4.9c0-2.6-1.8-4.9-5.5-4.9c-1.9,0-2.3,0.1-2.3,1.5V15.5z"/>
<path fill="#77787B" d="M257.8,11.1c0-3.6-0.2-3.8-2.4-4.2l-1-0.2c-0.4-0.3-0.3-1.1,0.1-1.3c2,0.1,3.6,0.2,5.3,0.2s3.3-0.1,5.3-0.2
	c0.4,0.2,0.5,1,0.1,1.3l-1,0.2c-2.2,0.4-2.4,0.6-2.4,4.2v11.6c0,3.6,0.2,3.8,2.4,4.2l1,0.2c0.4,0.3,0.3,1.1-0.1,1.3
	c-2-0.1-3.7-0.2-5.3-0.2c-1.7,0-3.3,0.1-5.3,0.2c-0.4-0.2-0.5-1-0.1-1.3l1-0.2c2.2-0.4,2.4-0.6,2.4-4.2V11.1z"/>
<path fill="#77787B" d="M274.6,11.1c0-3.6-0.2-3.7-2.2-4.2l-0.7-0.2c-0.4-0.2-0.3-1.1,0.1-1.3c1.5,0.1,3.1,0.2,4.8,0.2h7.4
	c2.3,0,4.4-0.1,4.8-0.2c0.1,0.6,0.3,3.1,0.6,5.3c-0.2,0.4-1,0.5-1.3,0.1c-0.3-1.4-0.6-2-0.9-2.5c-0.8-1.2-3.2-1.2-4.4-1.2h-2.3
	c-1.8,0-1.9,0.1-1.9,1.7v5.8c0,0.9,0,1,1,1h2.4c2.8,0,3-0.4,3.4-2l0.3-1c0.3-0.4,1-0.3,1.3,0.1c-0.1,1.5-0.1,2.4-0.1,3.6
	c0,1.3,0,2.2,0.1,3.7c-0.3,0.4-1,0.5-1.3,0.1l-0.3-1c-0.4-1.6-0.7-2-3.4-2h-2.4c-1,0-1,0.2-1,1.2v3.7c0,1.6,0.1,3.2,0.6,3.7
	c0.5,0.5,1.4,0.7,4.4,0.7c3.3,0,5.2-0.2,6.8-4.3c0.4-0.4,1.2-0.3,1.4,0.2c-0.3,2.2-1,4.8-1.6,5.8c-3.3-0.1-6-0.2-8.8-0.2h-4.6
	c-1.7,0-3.3,0.1-5.8,0.2c-0.4-0.2-0.5-1-0.1-1.3l1.4-0.2c2.2-0.3,2.4-0.6,2.4-4.2V11.1z"/>
<path fill="#77787B" d="M299.6,11.1c0-3.6-0.2-3.8-2.4-4.2l-1-0.2c-0.4-0.3-0.3-1.1,0.1-1.3c2,0.1,3.6,0.2,5.3,0.2
	c1.7,0,3.3-0.1,5-0.2c0.4,0.2,0.5,1,0.1,1.3L306,7c-2.2,0.5-2.4,0.6-2.4,4.2v11.2c0,1.6,0.1,3.1,0.6,3.6c0.5,0.5,1.3,0.8,4,0.8
	c3.2,0,5.1-0.2,6.6-4.3c0.4-0.4,1.2-0.3,1.3,0.2c-0.3,2.2-1,4.8-1.6,5.8c-3.3-0.1-6-0.2-8.7-0.2h-4.3c-1.7,0-3.3,0.1-5.3,0.2
	c-0.4-0.2-0.5-1-0.1-1.3l1-0.2c2.2-0.4,2.4-0.6,2.4-4.2V11.1z"/>
<path fill="#77787B" d="M323.7,11.1c0-3.6-0.2-3.8-2.4-4.2l-1-0.2c-0.4-0.3-0.3-1.1,0.1-1.3c2,0.1,3.6,0.2,5.3,0.2
	c1.7,0,3.3-0.1,5-0.2c0.4,0.2,0.5,1,0.1,1.3L330.1,7c-2.2,0.5-2.4,0.6-2.4,4.2v11.2c0,1.6,0.1,3.1,0.6,3.6c0.5,0.5,1.3,0.8,4,0.8
	c3.2,0,5.1-0.2,6.6-4.3c0.4-0.4,1.2-0.3,1.3,0.2c-0.3,2.2-1,4.8-1.6,5.8c-3.3-0.1-6-0.2-8.7-0.2h-4.3c-1.7,0-3.3,0.1-5.3,0.2
	c-0.4-0.2-0.5-1-0.1-1.3l1-0.2c2.2-0.4,2.4-0.6,2.4-4.2V11.1z"/>
<path fill="#77787B" d="M147.6,46.2c0-3.6-0.2-3.7-2.2-4.2l-0.7-0.2c-0.4-0.2-0.3-1.1,0.1-1.3c1.5,0.1,3.1,0.2,4.8,0.2h7.4
	c2.3,0,4.4-0.1,4.8-0.2c0.1,0.6,0.3,3.1,0.6,5.3c-0.2,0.4-1,0.5-1.4,0.1c-0.3-1.3-0.6-2-0.9-2.5c-0.8-1.2-3.2-1.2-4.4-1.2h-2.3
	c-1.8,0-1.9,0.1-1.9,1.7v5.8c0,0.9,0,1,1,1h2.4c2.8,0,3-0.4,3.4-2l0.3-1c0.3-0.4,1-0.3,1.3,0.1c-0.1,1.5-0.1,2.4-0.1,3.6
	c0,1.3,0,2.2,0.1,3.7c-0.3,0.4-1,0.5-1.3,0.1l-0.3-1c-0.4-1.6-0.7-2-3.4-2h-2.4c-1,0-1,0.2-1,1.2v3.7c0,1.6,0.1,3.2,0.6,3.7
	c0.5,0.5,1.4,0.7,4.4,0.7c3.3,0,5.2-0.2,6.8-4.3c0.4-0.4,1.2-0.3,1.4,0.2c-0.3,2.2-1,4.8-1.6,5.8c-3.3-0.1-6-0.2-8.8-0.2h-4.6
	c-1.7,0-3.3,0.1-5.8,0.2c-0.4-0.2-0.5-1-0.1-1.3l1.4-0.2c2.2-0.3,2.4-0.6,2.4-4.2V46.2z"/>
<path fill="#77787B" d="M173.2,46.2c0-3.6-0.2-3.7-2.4-4.2l-0.8-0.2c-0.4-0.3-0.3-1.1,0.1-1.3c1.8,0.1,3.4,0.2,5.1,0.2
	c1.7,0,3.3-0.1,5.2-0.2c0.5,0.2,0.5,1,0.1,1.3l-1,0.2c-2,0.3-2.2,0.6-2.2,4.2v2.9c0,1,0,1.7,0.3,1.8c0.3,0.2,1-0.1,1.4-0.3
	c1.8-1.2,5.9-5.9,6.3-6.3c1.1-1.2,1.2-2,0.4-2.1l-1.1-0.3c-0.5-0.2-0.4-1.2,0.1-1.3c1.5,0.1,3,0.2,4.6,0.2c1.5,0,2.6-0.1,4.4-0.2
	c0.5,0.2,0.6,1,0.1,1.3c-0.9,0.2-2.5,0.5-3.5,1c-1.3,0.7-2.5,1.7-4.8,3.9l-2.4,2.3c-1,1-1,1.2-0.2,2.1l6.5,7.8
	c1.9,2.2,2.6,3,4.9,3.1l0.7,0.1c0.4,0.3,0.3,1.1-0.1,1.3c-1.6-0.1-2.8-0.2-5.1-0.2c-1.7,0-3.4,0-5.1,0.2c-0.5-0.2-0.6-1-0.2-1.3
	l0.7-0.1c1.2-0.2,1.4-0.5,0.6-1.4l-4.7-5.7c-0.4-0.5-1.9-2.8-2.9-2.8c-0.9,0-0.9,0.5-0.9,2v3.6c0,3.6,0.2,3.8,2.4,4.2l1,0.2
	c0.4,0.3,0.3,1.1-0.1,1.3c-2-0.1-3.7-0.2-5.3-0.2c-1.7,0-3.3,0.1-4.9,0.2c-0.4-0.2-0.5-1-0.1-1.3l0.6-0.2c2.2-0.5,2.4-0.6,2.4-4.2
	V46.2z"/>
<path fill="#77787B" d="M223.1,52c0,7-5.3,12.1-12.6,12.1c-8,0-12.8-5.2-12.8-11.8c0-6.9,5.3-12.2,12.8-12.2
	C218.8,40.1,223.1,45.6,223.1,52z M202.3,51.4c0,5.3,2.4,11.1,8.5,11.1c3.9,0,7.7-2.7,7.7-9.8c0-5.6-2.6-11.2-8.4-11.2
	C206.4,41.6,202.3,44.1,202.3,51.4z"/>
<path fill="#77787B" d="M249.3,48.8c0-5.2-0.3-6.5-2.2-6.7l-1.7-0.2c-0.4-0.3-0.3-1,0.1-1.3c1.9,0.1,3.1,0.2,4.6,0.2
	c1.5,0,2.6-0.1,4.3-0.2c0.4,0.3,0.4,1,0.1,1.3l-1.6,0.2c-1.4,0.2-1.8,1.6-1.8,6.7v8.7c0,1,0,5.2,0.2,6c-0.2,0.3-0.6,0.6-1.1,0.5
	c-0.6-0.7-1.6-1.8-4.8-5.3l-7.9-8.4c-2-2.1-3.3-3.4-4-4c-0.2,0-0.2,0.6-0.2,2.2v6.9c0,5.2,0.3,6.5,2.2,6.7l1.7,0.2
	c0.4,0.3,0.3,1-0.1,1.3c-1.9-0.1-3.1-0.2-4.6-0.2c-1.5,0-2.5,0.1-4.3,0.2c-0.4-0.2-0.4-1-0.1-1.3l1.6-0.2c1.4-0.2,1.8-1.6,1.8-6.7
	V46c0-1.7-0.1-2.4-1.1-3.2c-0.4-0.3-1.4-0.6-1.9-0.7l-0.8-0.2c-0.4-0.3-0.4-1.1,0.1-1.3c2,0.2,3.4,0.2,4.5,0.2
	c0.7,0,1.5-0.1,2.1-0.2c1,2,3,4.2,5.1,6.4l4.9,5c1.1,1.1,4.2,4.4,4.7,4.8c0.3-0.1,0.3-0.8,0.3-2.1V48.8z"/>
<path fill="#77787B" d="M284.5,52c0,7-5.3,12.1-12.6,12.1c-8,0-12.8-5.2-12.8-11.8c0-6.9,5.3-12.2,12.8-12.2
	C280.2,40.1,284.5,45.6,284.5,52z M263.7,51.4c0,5.3,2.4,11.1,8.5,11.1c3.9,0,7.7-2.7,7.7-9.8c0-5.6-2.6-11.2-8.4-11.2
	C267.8,41.6,263.7,44.1,263.7,51.4z"/>
<path fill="#77787B" d="M303.4,54.2c0.4,0.7,1.7,3,1.9,3.2c0.2-0.1,1.1-1.8,2.1-3.6l2.6-5c2.5-4.8,2.8-5.7,3.6-8.1
	c1.1,0.1,2.2,0.2,3,0.2c1.2,0,2.8-0.1,4.3-0.2c0.5,0.2,0.5,1,0.2,1.3l-1.1,0.2c-2.4,0.3-2.5,1.3-2.5,4.4c0,5.5,0,9.9,0.3,13
	c0.1,1.1,0.1,2.4,1.7,2.5l1.5,0.2c0.4,0.2,0.4,1.1-0.1,1.3c-1.9-0.1-3.9-0.2-5.2-0.2c-1.5,0-3.1,0.1-4.6,0.2
	c-0.4-0.3-0.4-1.1-0.1-1.3l1.1-0.2c1.7-0.2,1.7-0.6,1.7-2.7v-12c0-0.6,0-1.4-0.2-1.5c-0.2,0-1.5,2.6-2.2,3.9l-3.2,6
	c-0.4,0.8-3.1,6.2-3.7,7.8c-0.3,0.2-0.7,0.2-1,0c-0.6-1.9-2.2-5.2-3.1-6.9l-3.4-6.5c-0.6-1.1-1.7-3.9-2.1-4.1
	c-0.2,0.3-0.3,3.7-0.3,5.2c-0.1,2.1-0.1,4.3-0.1,6.8c0,2.6,0.1,3.8,1.5,3.9l1.7,0.2c0.4,0.2,0.3,1.1-0.1,1.3
	c-1.3-0.1-2.9-0.2-4.3-0.2c-1.1,0-2.7,0.1-4.3,0.2c-0.4-0.2-0.4-1,0-1.3l1.1-0.2c1.7-0.3,1.9-0.8,2.1-2.6c0.4-2.8,0.7-11.2,0.7-14.7
	c0-1.7-0.6-2.4-2.3-2.6l-1.2-0.2c-0.3-0.3-0.4-1.1,0.1-1.3c1.4,0.1,2.6,0.2,4,0.2c1,0,2.1,0,3.8-0.2c0,2.3,0.9,3.9,2.7,7.4
	L303.4,54.2z"/>
<path fill="#77787B" d="M330.8,46.2c0-3.6-0.2-3.8-2.4-4.2l-1-0.2c-0.4-0.3-0.3-1.1,0.1-1.3c2,0.1,3.6,0.2,5.3,0.2s3.3-0.1,5.3-0.2
	c0.4,0.2,0.5,1,0.1,1.3l-1,0.2c-2.2,0.4-2.4,0.6-2.4,4.2v11.6c0,3.6,0.2,3.8,2.4,4.2l1,0.2c0.4,0.3,0.3,1.1-0.1,1.3
	c-2-0.1-3.7-0.2-5.3-0.2c-1.7,0-3.3,0.1-5.3,0.2c-0.4-0.2-0.5-1-0.1-1.3l1-0.2c2.2-0.4,2.4-0.6,2.4-4.2V46.2z"/>
<polygon fill="#FFE293" points="135.6,75.1 123,89.5 85.8,98.3 96.4,82.9 "/>
<polygon fill="#FFD400" points="109.9,41.4 135.6,75.1 96.4,82.9 73.8,44.2 "/>
<polygon fill="#6D9A5B" points="30.6,95.9 25.2,112.6 0,17.9 1.5,0 "/>
<polygon fill="#3A7F2D" points="69.2,54.4 40.9,1.6 1.5,0 30.6,95.9 79.6,86.2 85.6,85 "/>
<polygon fill="#FFE075" points="96.4,82.9 73.8,44.2 69.2,54.4 85.6,85 82,90.8 85.8,98.3 "/>
<polygon fill="#8DB282" points="30.6,95.9 25.2,112.6 75.7,100.7 82,90.8 85.6,85 "/>
</svg>
